#!OML:ASF H:\Terrain\Walking\May29\JustinRory\Justin.ASF
:FULLY-SPECIFIED
:DEGREES
353
root 16.8327 9.92587 -6.74965 -123.159 -81.2715 99.9211
lowerback 43.5397 2.27889 -3.07496
upperback 13.9828 -0.604802 2.73856
thorax -4.79515 -1.511 4.80754
lowerneck -16.6263 11.44 -2.9662
upperneck 20.9104 17.5319 -4.35667
head 9.50234 7.36905 1.23846
rclavicle -2.22639e-014 3.18055e-015
rhumerus 1.30831 28.0103 -71.4727
rradius 86.8108
rwrist 1.37871
rhand -18.3316 28.1965
rfingers 7.12502
rthumb 7.95028 -1.63399
lclavicle -2.22639e-014 3.18055e-015
lhumerus 16.487 -31.6441 82.5486
lradius 68.9643
lwrist -26.1035
lhand -5.22707 25.4416
lfingers 7.12502
lthumb 20.5752 54.3712
rfemur -67.9082 -13.0519 12.7212
rtibia 73.5579
rfoot 19.611 2.23522
rtoes 22.4008
lfemur -62.6909 5.13488 -14.4954
ltibia 71.3172
lfoot 18.2229 5.34932
ltoes 39.4182
354
root 16.8155 9.92007 -6.7514 -121.119 -80.7349 97.8608
lowerback 43.7285 2.39824 -3.70381
upperback 13.9382 -0.74776 2.49975
thorax -4.87474 -1.58627 4.93297
lowerneck -16.4899 11.558 -3.21082
upperneck 20.7884 17.6839 -4.14853
head 9.39061 7.46049 1.34218
rclavicle -1.27222e-014 3.49861e-014
rhumerus 1.0655 28.3439 -71.7178
rradius 87.1514
rwrist 1.09031
rhand -18.5257 28.6278
rfingers 7.12502
rthumb 7.76293 -1.20966
lclavicle -1.27222e-014 3.49861e-014
lhumerus 16.4502 -31.2859 82.5641
lradius 68.4676
lwrist -25.4992
lhand -5.80904 25.4044
lfingers 7.12502
lthumb 20.0159 54.3935
rfemur -68.0201 -13.0981 12.0367
rtibia 73.6937
rfoot 19.6475 2.48359
rtoes 21.6982
lfemur -62.7027 5.26021 -15.2719
ltibia 71.3771
lfoot 18.1605 5.34709
ltoes 39.168
355
root 16.8017 9.91154 -6.76068 -122.358 -80.6672 99.7615
lowerback 42.5931 2.57765 -4.31482
upperback 14.2986 -0.733836 2.57355
thorax -4.16217 -1.63222 5.2978
lowerneck -16.1961 11.7721 -3.26836
upperneck 19.938 18.0525 -4.80604
head 9.11102 7.61866 1.13689
rclavicle -1.98785e-014 6.36111e-015
rhumerus 1.84145 28.9772 -71.3264
rradius 87.1317
rwrist 0.899232
rhand -18.3632 29.2921
rfingers 7.12502
rthumb 7.9198 -0.539566
lclavicle -1.98785e-014 6.36111e-015
lhumerus 16.8451 -30.4892 82.343
lradius 68.2614
lwrist -25.1091
lhand -5.99357 25.8516
lfingers 7.12502
lthumb 19.8385 54.8591
rfemur -68.8666 -12.6405 12.2584
rtibia 73.8335
rfoot 19.7162 1.94272
rtoes 22.9495
lfemur -63.4655 5.79859 -15.1929
ltibia 71.5023
lfoot 18.2017 5.29231
ltoes 39.7609
356
root 16.7947 9.92192 -6.76005 -122.056 -80.7934 99.845
lowerback 42.2771 2.5076 -4.16018
upperback 14.4089 -0.74565 2.52615
thorax -3.95245 -1.63575 5.16533
lowerneck -16.3255 11.7573 -3.28989
upperneck 19.7515 18.1327 -5.25191
head 9.11895 7.60891 1.0127
rclavicle 2.78299e-014 -2.06736e-014
rhumerus 1.98536 28.9988 -71.1544
rradius 87.2318
rwrist 0.827671
rhand -18.2223 29.7806
rfingers 7.12502
rthumb 8.05578 -0.0459072
lclavicle 2.78299e-014 -2.06736e-014
lhumerus 17.1253 -30.4073 82.2131
lradius 68.1874
lwrist -24.7819
lhand -5.94184 26.5889
lfingers 7.12502
lthumb 19.8883 55.5912
rfemur -69.2264 -12.6847 12.4468
rtibia 73.9064
rfoot 19.7194 1.84129
rtoes 23.1544
lfemur -63.8831 5.67102 -15.0686
ltibia 71.5844
lfoot 18.0204 5.48602
ltoes 40.3654
357
root 16.7854 9.92141 -6.7602 -122.351 -80.9344 101.022
lowerback 41.4398 2.40823 -3.87142
upperback 14.3463 -0.661117 2.39912
thorax -3.79565 -1.54869 4.84197
lowerneck -16.703 11.7184 -3.67238
upperneck 20.1174 18.1263 -4.78372
head 9.2272 7.59631 1.24805
rclavicle 1.11319e-014 3.18055e-015
rhumerus 1.71545 28.9108 -71.1366
rradius 87.5898
rwrist 0.898512
rhand -18.2628 29.767
rfingers 7.12502
rthumb 8.01673 -0.0610034
lclavicle 1.11319e-014 3.18055e-015
lhumerus 17.1231 -30.5367 82.1821
lradius 67.9688
lwrist -24.4895
lhand -6.49225 26.5287
lfingers 7.12502
lthumb 19.3591 55.585
rfemur -70.235 -12.6137 12.9638
rtibia 73.952
rfoot 19.6822 2.2288
rtoes 21.1504
lfemur -64.8567 5.90322 -14.838
ltibia 71.6196
lfoot 18.1542 5.5254
ltoes 40.7857
358
root 16.7661 9.91901 -6.73809 -118.792 -81.1128 96.9631
lowerback 42.5279 2.0269 -3.43886
upperback 14.2496 -1.05283 2.17664
thorax -4.17743 -1.7173 4.54393
lowerneck -16.8727 11.835 -3.83415
upperneck 20.2853 18.2595 -4.37364
head 9.2552 7.68116 1.43214
rclavicle 0 -1.11319e-014
rhumerus 1.63401 28.9625 -71.1106
rradius 87.923
rwrist 0.944223
rhand -18.1356 29.6819
rfingers 7.12502
rthumb 8.13942 -0.141293
lclavicle 0 -1.11319e-014
lhumerus 17.1252 -30.4401 82.0864
lradius 67.4374
lwrist -24.1394
lhand -7.68902 25.5948
lfingers 7.12502
lthumb 18.208 54.7626
rfemur -69.6691 -13.3782 12.4814
rtibia 74.0856
rfoot 19.5121 2.9048
rtoes 19.6733
lfemur -64.5511 5.62414 -15.3952
ltibia 71.695
lfoot 18.3068 5.16259
ltoes 40.5345
359
root 16.7993 9.94648 -6.73842 -117.72 -80.9786 95.593
lowerback 43.3519 2.09959 -3.70284
upperback 14.1421 -1.13723 2.08899
thorax -4.51 -1.766 4.63209
lowerneck -16.9063 11.9824 -3.36754
upperneck 20.3537 18.4972 -4.97496
head 9.39871 7.74364 1.2185
rclavicle -8.74653e-015 4.6118e-014
rhumerus 1.42679 29.1479 -71.243
rradius 88.1652
rwrist 1.14592
rhand -18.0325 29.6789
rfingers 7.12502
rthumb 8.23895 -0.140495
lclavicle -8.74653e-015 4.6118e-014
lhumerus 17.0257 -30.2571 82.1311
lradius 66.8438
lwrist -23.9437
lhand -8.9371 24.7098
lfingers 7.12502
lthumb 17.007 53.9853
rfemur -69.1626 -13.4965 12.2075
rtibia 73.9829
rfoot 19.6273 2.70284
rtoes 20.5747
lfemur -63.8772 4.69884 -15.1889
ltibia 71.5193
lfoot 17.6365 5.91863
ltoes 41.0989
360
root 16.7671 9.93317 -6.72472 -117.802 -80.6807 95.7719
lowerback 43.4275 2.22017 -4.05647
upperback 14.1114 -1.15023 1.97006
thorax -4.55746 -1.77698 4.69256
lowerneck -16.6892 12.142 -2.5077
upperneck 20.1799 18.8197 -6.44519
head 9.55656 7.79011 0.66629
rclavicle 9.54166e-015 -1.27222e-014
rhumerus 1.30258 29.4334 -71.2564
rradius 88.4238
rwrist 1.18678
rhand -17.4079 29.5821
rfingers 7.12502
rthumb 8.84172 -0.212682
lclavicle 9.54166e-015 -1.27222e-014
lhumerus 16.9233 -30.0783 82.2018
lradius 66.4789
lwrist -24.0458
lhand -9.69264 24.7209
lfingers 7.12502
lthumb 16.2796 54.0575
rfemur -69.455 -13.582 11.9935
rtibia 74.1484
rfoot 19.8545 2.85984
rtoes 20.6168
lfemur -64.1164 5.39339 -15.7669
ltibia 71.7384
lfoot 17.8064 5.43815
ltoes 41.1728
361
root 16.7489 9.92837 -6.7305 -120.539 -81.0792 98.6313
lowerback 43.1883 2.31818 -3.88804
upperback 14.2977 -0.967554 2.09909
thorax -4.3053 -1.71128 4.66575
lowerneck -17.04 12.0909 -3.73791
upperneck 20.3635 18.794 -5.16865
head 9.41791 7.82361 1.25404
rclavicle -7.15625e-015 3.18055e-014
rhumerus 1.4684 29.5217 -71.1022
rradius 88.6457
rwrist 1.11144
rhand -15.9964 29.4154
rfingers 7.12502
rthumb 10.2036 -0.317141
lclavicle -7.15625e-015 3.18055e-014
lhumerus 17.1624 -30.0078 82.0271
lradius 66.2007
lwrist -24.1865
lhand -9.96157 25.753
lfingers 7.12502
lthumb 16.0207 55.1106
rfemur -69.5548 -13.1816 12.5949
rtibia 74.1411
rfoot 19.8043 2.8639
rtoes 20.1516
lfemur -64.3609 6.10085 -15.299
ltibia 71.8943
lfoot 18.0675 5.0033
ltoes 41.0668
362
root 16.738 9.91982 -6.74168 -122.948 -81.5444 101.252
lowerback 42.8349 2.4026 -3.67702
upperback 14.508 -0.772185 2.2757
thorax -3.99683 -1.63875 4.66201
lowerneck -17.2214 12.0608 -4.07391
upperneck 20.3389 18.8293 -5.08623
head 9.40155 7.82165 1.33959
rclavicle 5.56597e-015 9.54166e-015
rhumerus 1.66491 29.5429 -70.854
rradius 88.8399
rwrist 1.1115
rhand -15.2386 29.2378
rfingers 7.12502
rthumb 10.9346 -0.457446
lclavicle 5.56597e-015 9.54166e-015
lhumerus 17.5236 -30.029 81.7823
lradius 65.8151
lwrist -24.5583
lhand -10.2569 26.7301
lfingers 7.12502
lthumb 15.7362 56.1104
rfemur -69.7397 -12.7747 13.2259
rtibia 74.0892
rfoot 19.7756 2.58116
rtoes 19.9591
lfemur -64.7601 6.60342 -14.705
ltibia 72.027
lfoot 18.4129 4.73935
ltoes 41.2182
